# xmcd
#
# Track frame offsets: 
#        150
#        10140
#        28417
#        40884
#        58815
#        71903
#        90579
#        109266
#        124856
#        141887
#        159605
#        180362
#        200383
#        217459
#        234664
#
# Disc length: 3414 seconds
#
# Revision: 3
# Processed by: cddbd v1.5.2PL0 Copyright (c) Steve Scherf et al.
# Submitted via: ExactAudioCopyFreeDBPlugin 1.0
#
DISCID=e30d540f
DTITLE=Various Artist - The Very Best Of Christmas Favourites Disc 1
DYEAR=2003
DGENRE=Christmas
TTITLE0=Diana Krall - Jingle Bells
TTITLE1=David Benoit - The First Noel
TTITLE2=Mel Torme - The Christmas Song
TTITLE3=Richard Elliot - God Rest Ye Merry Gentlemen
TTITLE4=Ella Fitzgerald - Rudolph, The Red-Nosed Reindeer
TTITLE5=Marc Antoine - What Child Is This
TTITLE6=Shirley Horn - Winter Wonderland
TTITLE7=Gerald Albright - This Christmas
TTITLE8=Ella Fitzgerald - White Christmas
TTITLE9=Roy Hargrove, Christian McBride - Frosty The Snowman
TTITLE10=Joe Williams - Let It Snow! Let It Snow! Let It Snow!
TTITLE11=Bill Evans - Santa Claus Is Comin' To Town
TTITLE12=Antonio Carlos Jobim - Looks Like December
TTITLE13=John Coltrane - Greensleeves
TTITLE14=Joyce Cooling - The Christmas Song
EXTD=YEAR: 2003
EXTT0=
EXTT1=
EXTT2=
EXTT3=
EXTT4=
EXTT5=
EXTT6=
EXTT7=
EXTT8=
EXTT9=
EXTT10=
EXTT11=
EXTT12=
EXTT13=
EXTT14=
PLAYORDER=
